<?xml version="1.0" standalone="no"?>
<!DOCTYPE svg PUBLIC "-//W3C//DTD SVG 20010904//EN"
 "http://www.w3.org/TR/2001/REC-SVG-20010904/DTD/svg10.dtd">
<svg version="1.0" xmlns="http://www.w3.org/2000/svg" viewBox="0 0 500.000000 500.000000"
 preserveAspectRatio="xMidYMid meet">
<g transform="translate(0.000000,500.000000) scale(0.100000,-0.100000)"
fill="#ffffff" stroke="none">
<path d="M2205 4988 c-105 -12 -298 -51 -409 -83 -400 -116 -765 -333 -1066
-635 -352 -351 -590 -788 -697 -1275 -28 -130 -28 -131 -28 -495 0 -359 0
-367 27 -487 15 -67 36 -154 48 -194 l22 -72 188 189 189 189 -15 95 c-20 130
-19 415 1 555 66 451 268 858 585 1175 317 317 723 519 1175 585 145 22 415
22 560 0 922 -135 1626 -839 1760 -1760 21 -144 21 -416 0 -560 -134 -920
-843 -1629 -1759 -1760 -154 -22 -414 -22 -560 0 l-109 16 -179 -178 c-98 -98
-178 -181 -178 -184 0 -9 227 -64 350 -85 128 -21 503 -30 652 -15 573 59
1097 310 1508 721 407 406 658 928 719 1492 16 142 13 444 -4 588 -69 561
-312 1056 -715 1460 -405 406 -928 658 -1492 719 -115 13 -459 12 -573 -1z"/>
</g>
</svg>
